<svg width="95" height="103" viewBox="0 0 95 103" fill="none" xmlns="http://www.w3.org/2000/svg">
<g clip-path="url(#clip0_28_87)">
<path d="M65.6374 19.7207C71.7234 20.9189 76.7748 22.7447 80.822 25.2268L90.4074 8.16636C87.3644 6.08373 83.2564 4.2864 78.1137 2.7173C67.7675 -0.477968 57.2388 -0.820318 46.5274 1.60466C25.196 6.42608 11.5634 16.3542 5.50782 31.332C3.28644 36.8381 2.22139 42.7151 2.37354 48.9916C2.49526 53.9842 3.28644 58.4062 4.68621 62.2861C7.8205 70.7308 8.88555 76.9501 7.8205 81.0013C7.05975 85.195 5.53825 88.2191 3.22558 90.1306C2.49526 90.7297 1.76494 91.1576 1.00419 91.4429L0 91.7282C7.54663 90.9294 12.2937 86.6215 14.1804 78.8045C14.9107 75.809 15.1237 71.2443 14.8194 65.1676L14.0586 57.75C13.7848 54.0697 13.9065 50.7604 14.5151 47.8219C16.2496 39.0634 21.9704 31.7029 31.708 25.7403C42.1151 19.3783 53.4046 17.3813 65.6374 19.7207Z" fill="white"/>
<path d="M57.9386 22.1459L54.074 22.2886L53.8001 34.3564H54.8348C55.8694 30.3908 58.5168 27.4809 62.6553 25.5694C64.7549 24.5994 66.7024 24.0288 68.5587 23.9147C64.8158 22.8306 61.2859 22.2886 57.9386 22.1459ZM48.627 34.8699L50.818 34.3564L50.6658 22.6594L46.3144 23.4012L48.627 34.8699ZM75.8314 46.8521C69.8672 40.7184 61.7728 38.1508 51.5787 39.1207C44.8537 39.7484 39.1633 43.0578 34.5075 49.0204C32.773 51.2742 31.4645 53.6135 30.6125 56.0671C29.7909 58.3209 29.5779 60.0326 29.943 61.2594L30.4908 65.9096C30.9472 69.1904 31.495 71.2446 32.134 72.129C32.986 73.2701 33.2295 76.2086 32.7122 81.0015C32.2253 85.9371 31.2515 88.9897 29.7909 90.0452L54.8652 85.6518L63.7812 92.299C70.7801 97.1205 76.9269 100.458 82.2522 102.313C78.8744 92.3276 77.7181 81.5436 78.6614 69.9322L72.4841 69.0763C68.1631 68.0493 65.6678 66.3946 64.8766 64.0837L66.0026 63.0567C66.9459 62.3435 68.0414 61.7443 69.1977 61.3164C72.758 60.0041 76.1966 60.5461 79.5135 62.9711L83.3476 76.5795L87.3948 77.2642C90.4074 77.9489 92.6288 78.8048 94.0894 79.8603C88.9163 74.0975 84.8083 66.252 81.7653 56.2382C80.7915 53.0144 78.844 49.8762 75.8314 46.8521ZM42.9062 24.6279L39.1329 25.8262L43.5757 36.5816L46.1318 35.469L42.9062 24.6279ZM35.39 27.7947L32.5296 29.3638L39.1329 38.3505L41.0804 37.1237L35.39 27.7947ZM27.4174 49.9048L18.4709 48.3642C17.8928 49.0774 17.5276 52.13 17.2842 57.4935C17.0712 63.7699 17.1929 64.5402 17.6798 59.8044C18.0145 56.6947 19.6273 54.3838 22.579 52.9288C24.0396 52.2441 25.4394 51.8733 26.8696 51.7306L27.4174 49.9048ZM20.5706 42.1448L19.0187 45.3116L29.2432 47.651L30.0343 46.196L20.5706 42.1448ZM24.7091 35.6687L21.9704 38.9496L31.708 44.5983L33.1078 42.8866L24.7091 35.6687ZM35.0857 41.1748L36.6681 39.4631L29.943 31.1896L26.8088 33.8429L35.0857 41.1748Z" fill="white"/>
</g>
<defs>
<clipPath id="clip0_28_87">
<rect width="94.059" height="102.349" fill="white"/>
</clipPath>
</defs>
</svg>
